<mxfile host="Electron" modified="2023-10-12T16:52:32.310Z" agent="Mozilla/5.0 (Macintosh; Intel Mac OS X 10_15_7) AppleWebKit/537.36 (KHTML, like Gecko) draw.io/22.0.2 Chrome/114.0.5735.289 Electron/25.8.4 Safari/537.36" etag="bvpsVCODy6ncJGIsGAab" version="22.0.2" type="device" pages="2">
  <diagram name="DeleteTask" id="VtEc_756wrv8LH5f3xgx">
    <mxGraphModel dx="1026" dy="743" grid="0" gridSize="10" guides="1" tooltips="1" connect="1" arrows="1" fold="1" page="1" pageScale="1" pageWidth="827" pageHeight="1169" math="0" shadow="0">
      <root>
        <mxCell id="0" />
        <mxCell id="1" parent="0" />
        <mxCell id="7j0BlkbqUQT__Camz5FS-12" style="edgeStyle=orthogonalEdgeStyle;rounded=0;orthogonalLoop=1;jettySize=auto;html=1;exitX=0.5;exitY=0.5;exitDx=0;exitDy=15;exitPerimeter=0;entryX=0.5;entryY=0;entryDx=0;entryDy=0;endArrow=none;endFill=0;" parent="1" source="7j0BlkbqUQT__Camz5FS-1" target="7j0BlkbqUQT__Camz5FS-2" edge="1">
          <mxGeometry relative="1" as="geometry" />
        </mxCell>
        <mxCell id="7j0BlkbqUQT__Camz5FS-1" value="Начало" style="html=1;dashed=0;whiteSpace=wrap;shape=mxgraph.dfd.start" parent="1" vertex="1">
          <mxGeometry x="360" y="40" width="80" height="30" as="geometry" />
        </mxCell>
        <mxCell id="7j0BlkbqUQT__Camz5FS-13" style="edgeStyle=orthogonalEdgeStyle;shape=connector;rounded=0;orthogonalLoop=1;jettySize=auto;html=1;exitX=0.5;exitY=1;exitDx=0;exitDy=0;entryX=0.5;entryY=0;entryDx=0;entryDy=0;labelBackgroundColor=default;strokeColor=default;align=center;verticalAlign=middle;fontFamily=Helvetica;fontSize=11;fontColor=default;endArrow=none;endFill=0;" parent="1" source="7j0BlkbqUQT__Camz5FS-2" target="7j0BlkbqUQT__Camz5FS-6" edge="1">
          <mxGeometry relative="1" as="geometry" />
        </mxCell>
        <mxCell id="7j0BlkbqUQT__Camz5FS-2" value="Получаем задачи пользователя" style="shape=process;whiteSpace=wrap;html=1;backgroundOutline=1;" parent="1" vertex="1">
          <mxGeometry x="340" y="100" width="120" height="80" as="geometry" />
        </mxCell>
        <mxCell id="7j0BlkbqUQT__Camz5FS-15" style="edgeStyle=orthogonalEdgeStyle;shape=connector;rounded=0;orthogonalLoop=1;jettySize=auto;html=1;exitX=0;exitY=0.5;exitDx=0;exitDy=0;entryX=0.5;entryY=0;entryDx=0;entryDy=0;labelBackgroundColor=default;strokeColor=default;align=center;verticalAlign=middle;fontFamily=Helvetica;fontSize=11;fontColor=default;endArrow=none;endFill=0;" parent="1" source="7j0BlkbqUQT__Camz5FS-4" target="7j0BlkbqUQT__Camz5FS-9" edge="1">
          <mxGeometry relative="1" as="geometry" />
        </mxCell>
        <mxCell id="7j0BlkbqUQT__Camz5FS-17" style="edgeStyle=orthogonalEdgeStyle;shape=connector;rounded=0;orthogonalLoop=1;jettySize=auto;html=1;exitX=1;exitY=0.5;exitDx=0;exitDy=0;entryX=0.5;entryY=0;entryDx=0;entryDy=0;labelBackgroundColor=default;strokeColor=default;align=center;verticalAlign=middle;fontFamily=Helvetica;fontSize=11;fontColor=default;endArrow=none;endFill=0;" parent="1" source="7j0BlkbqUQT__Camz5FS-4" target="7j0BlkbqUQT__Camz5FS-11" edge="1">
          <mxGeometry relative="1" as="geometry" />
        </mxCell>
        <mxCell id="7j0BlkbqUQT__Camz5FS-4" value="Выбор кнопки" style="rhombus;whiteSpace=wrap;html=1;" parent="1" vertex="1">
          <mxGeometry x="340" y="320" width="120" height="80" as="geometry" />
        </mxCell>
        <mxCell id="7j0BlkbqUQT__Camz5FS-14" style="edgeStyle=orthogonalEdgeStyle;shape=connector;rounded=0;orthogonalLoop=1;jettySize=auto;html=1;exitX=0.5;exitY=1;exitDx=0;exitDy=0;entryX=0.5;entryY=0;entryDx=0;entryDy=0;labelBackgroundColor=default;strokeColor=default;align=center;verticalAlign=middle;fontFamily=Helvetica;fontSize=11;fontColor=default;endArrow=none;endFill=0;" parent="1" source="7j0BlkbqUQT__Camz5FS-6" target="7j0BlkbqUQT__Camz5FS-4" edge="1">
          <mxGeometry relative="1" as="geometry" />
        </mxCell>
        <mxCell id="7j0BlkbqUQT__Camz5FS-6" value="Создаем кнопки из задач" style="shape=process;whiteSpace=wrap;html=1;backgroundOutline=1;" parent="1" vertex="1">
          <mxGeometry x="340" y="220" width="120" height="80" as="geometry" />
        </mxCell>
        <mxCell id="7j0BlkbqUQT__Camz5FS-16" style="edgeStyle=orthogonalEdgeStyle;shape=connector;rounded=0;orthogonalLoop=1;jettySize=auto;html=1;exitX=0.5;exitY=1;exitDx=0;exitDy=0;entryX=0.5;entryY=0;entryDx=0;entryDy=0;labelBackgroundColor=default;strokeColor=default;align=center;verticalAlign=middle;fontFamily=Helvetica;fontSize=11;fontColor=default;endArrow=none;endFill=0;" parent="1" source="7j0BlkbqUQT__Camz5FS-9" target="7j0BlkbqUQT__Camz5FS-10" edge="1">
          <mxGeometry relative="1" as="geometry" />
        </mxCell>
        <mxCell id="7j0BlkbqUQT__Camz5FS-9" value="получаем выбранную &lt;br&gt;задачу" style="shape=parallelogram;perimeter=parallelogramPerimeter;whiteSpace=wrap;html=1;fixedSize=1;" parent="1" vertex="1">
          <mxGeometry x="200" y="420" width="120" height="80" as="geometry" />
        </mxCell>
        <mxCell id="7j0BlkbqUQT__Camz5FS-10" value="удаляем задачу из базы данных" style="shape=process;whiteSpace=wrap;html=1;backgroundOutline=1;" parent="1" vertex="1">
          <mxGeometry x="200" y="534.5" width="120" height="80" as="geometry" />
        </mxCell>
        <mxCell id="7j0BlkbqUQT__Camz5FS-11" value="TaskMenu" style="swimlane;whiteSpace=wrap;html=1;" parent="1" vertex="1">
          <mxGeometry x="470" y="490" width="120" height="80" as="geometry" />
        </mxCell>
        <mxCell id="7j0BlkbqUQT__Camz5FS-18" value="Конец" style="html=1;dashed=0;whiteSpace=wrap;shape=mxgraph.dfd.start;fontFamily=Helvetica;fontSize=11;fontColor=default;" parent="1" vertex="1">
          <mxGeometry x="360" y="650" width="80" height="30" as="geometry" />
        </mxCell>
        <mxCell id="7j0BlkbqUQT__Camz5FS-19" style="edgeStyle=orthogonalEdgeStyle;shape=connector;rounded=0;orthogonalLoop=1;jettySize=auto;html=1;exitX=0.5;exitY=1;exitDx=0;exitDy=0;entryX=0.5;entryY=0.5;entryDx=0;entryDy=-15;entryPerimeter=0;labelBackgroundColor=default;strokeColor=default;align=center;verticalAlign=middle;fontFamily=Helvetica;fontSize=11;fontColor=default;endArrow=none;endFill=0;" parent="1" source="7j0BlkbqUQT__Camz5FS-10" target="7j0BlkbqUQT__Camz5FS-18" edge="1">
          <mxGeometry relative="1" as="geometry">
            <Array as="points">
              <mxPoint x="260" y="635" />
              <mxPoint x="400" y="635" />
            </Array>
          </mxGeometry>
        </mxCell>
        <mxCell id="7j0BlkbqUQT__Camz5FS-20" style="edgeStyle=orthogonalEdgeStyle;shape=connector;rounded=0;orthogonalLoop=1;jettySize=auto;html=1;entryX=0.5;entryY=0.5;entryDx=0;entryDy=-15;entryPerimeter=0;labelBackgroundColor=default;strokeColor=default;align=center;verticalAlign=middle;fontFamily=Helvetica;fontSize=11;fontColor=default;endArrow=none;endFill=0;" parent="1" edge="1">
          <mxGeometry relative="1" as="geometry">
            <mxPoint x="530" y="570" as="sourcePoint" />
            <mxPoint x="400" y="645" as="targetPoint" />
            <Array as="points">
              <mxPoint x="530" y="635" />
              <mxPoint x="400" y="635" />
            </Array>
          </mxGeometry>
        </mxCell>
        <mxCell id="7j0BlkbqUQT__Camz5FS-21" value="выбор задачи" style="text;html=1;strokeColor=none;fillColor=none;align=center;verticalAlign=middle;whiteSpace=wrap;rounded=0;fontSize=11;fontFamily=Helvetica;fontColor=default;" parent="1" vertex="1">
          <mxGeometry x="280" y="330" width="60" height="30" as="geometry" />
        </mxCell>
        <mxCell id="7j0BlkbqUQT__Camz5FS-22" value="назад в&amp;nbsp; меню задачи" style="text;html=1;strokeColor=none;fillColor=none;align=center;verticalAlign=middle;whiteSpace=wrap;rounded=0;fontSize=11;fontFamily=Helvetica;fontColor=default;" parent="1" vertex="1">
          <mxGeometry x="460" y="330" width="70" height="30" as="geometry" />
        </mxCell>
      </root>
    </mxGraphModel>
  </diagram>
  <diagram id="w76xRXO0BppAEfC-L-0R" name="DeleteTask_N_SH">
    <mxGraphModel dx="1026" dy="743" grid="1" gridSize="10" guides="1" tooltips="1" connect="1" arrows="1" fold="1" page="1" pageScale="1" pageWidth="827" pageHeight="1169" math="0" shadow="0">
      <root>
        <mxCell id="0" />
        <mxCell id="1" parent="0" />
        <mxCell id="p2APngxzN45FO8vQa93s-1" value="&lt;br&gt;&lt;br&gt;&lt;br&gt;&lt;div style=&quot;&quot;&gt;&lt;span style=&quot;background-color: initial;&quot;&gt;Выбор задачи&lt;/span&gt;&lt;/div&gt;" style="rounded=0;whiteSpace=wrap;html=1;fontFamily=Helvetica;fontSize=11;fontColor=default;align=left;" vertex="1" parent="1">
          <mxGeometry x="440" y="170" width="160" height="60" as="geometry" />
        </mxCell>
        <mxCell id="nl6VBhrTQ7jhgj9mm7bh-1" value="&lt;br&gt;&lt;br&gt;&lt;br&gt;Назад в в меню задачи" style="rounded=0;whiteSpace=wrap;html=1;fontFamily=Helvetica;fontSize=11;fontColor=default;" vertex="1" parent="1">
          <mxGeometry x="280" y="160" width="160" height="70" as="geometry" />
        </mxCell>
        <mxCell id="VCZxpauTn8sWR6OR4iRg-1" value="DeleteTask" style="rounded=0;whiteSpace=wrap;html=1;fontFamily=Helvetica;fontSize=11;fontColor=default;" vertex="1" parent="1">
          <mxGeometry x="280" y="40" width="320" height="40" as="geometry" />
        </mxCell>
        <mxCell id="6Xeos4fAKuSkSbvCli3--1" value="Получаем задачи пользователя" style="rounded=0;whiteSpace=wrap;html=1;fontFamily=Helvetica;fontSize=11;fontColor=default;" vertex="1" parent="1">
          <mxGeometry x="280" y="80" width="320" height="40" as="geometry" />
        </mxCell>
        <mxCell id="6Xeos4fAKuSkSbvCli3--2" value="Создаем кнопки из задач" style="rounded=0;whiteSpace=wrap;html=1;fontFamily=Helvetica;fontSize=11;fontColor=default;" vertex="1" parent="1">
          <mxGeometry x="280" y="120" width="320" height="40" as="geometry" />
        </mxCell>
        <mxCell id="a_Ea2iQH83SmgE8WLRYU-1" value="" style="verticalLabelPosition=bottom;verticalAlign=top;html=1;shape=mxgraph.basic.orthogonal_triangle;fontFamily=Helvetica;fontSize=11;fontColor=default;direction=west;" vertex="1" parent="1">
          <mxGeometry x="280" y="160" width="320" height="70" as="geometry" />
        </mxCell>
        <mxCell id="p2APngxzN45FO8vQa93s-2" value="TaskMenu" style="rounded=0;whiteSpace=wrap;html=1;fontFamily=Helvetica;fontSize=11;fontColor=default;" vertex="1" parent="1">
          <mxGeometry x="280" y="230" width="160" height="60" as="geometry" />
        </mxCell>
        <mxCell id="K9YZmHbm_gHqW4tPOQFN-1" value="Удаляем выбранную задачу" style="rounded=0;whiteSpace=wrap;html=1;fontFamily=Helvetica;fontSize=11;fontColor=default;" vertex="1" parent="1">
          <mxGeometry x="440" y="230" width="160" height="60" as="geometry" />
        </mxCell>
        <mxCell id="K9YZmHbm_gHqW4tPOQFN-2" value="Выбор кнопки&amp;nbsp;" style="text;html=1;strokeColor=none;fillColor=none;align=center;verticalAlign=middle;whiteSpace=wrap;rounded=0;fontSize=11;fontFamily=Helvetica;fontColor=default;" vertex="1" parent="1">
          <mxGeometry x="480" y="170" width="110" height="30" as="geometry" />
        </mxCell>
      </root>
    </mxGraphModel>
  </diagram>
</mxfile>
